<svg xmlns="http://www.w3.org/2000/svg" viewBox="0 0 64 64">
    <title>Forecast-sunset-weather </title>
    <g id="Solid">
        <path d="M61,37H46.949a14.981,14.981,0,0,0-29.9,0H3a1,1,0,0,0,0,2H61a1,1,0,0,0,0-2Z" id="id_101" style="fill: rgb(255, 255, 255);"></path>
        <path d="M49,42a1,1,0,0,0-1-1H15a1,1,0,0,0,0,2H48A1,1,0,0,0,49,42Z" id="id_102" style="fill: rgb(255, 255, 255, 0.5);"></path>
        <path d="M46,46a1,1,0,0,0-1-1H18a1,1,0,0,0,0,2H45A1,1,0,0,0,46,46Z" id="id_103" style="fill: rgb(255, 255, 255, 0.5);"></path>
        <path d="M43,50a1,1,0,0,0-1-1H21a1,1,0,0,0,0,2H42A1,1,0,0,0,43,50Z" id="id_104" style="fill: rgb(255, 255, 255, 0.5);"></path>
        <path d="M25,53a1,1,0,0,0,0,2H38a1,1,0,0,0,0-2Z" id="id_105" style="fill: rgb(255, 255, 255, 0.5);"></path>
        <path d="M3,34a1,1,0,0,0,0,2H13a1,1,0,0,0,0-2Z" id="id_106" style="fill: rgb(255, 255, 255);"></path>
        <path d="M2.658,24.939l11,4a1,1,0,1,0,.684-1.878l-11-4a1,1,0,1,0-.684,1.878Z" id="id_107" style="fill: rgb(255, 255, 255);"></path>
        <path d="M23.081,17.394A1,1,0,0,0,24,18a.979.979,0,0,0,.394-.081,1,1,0,0,0,.525-1.313l-3-7a1,1,0,0,0-1.838.788Z" id="id_108" style="fill: rgb(255, 255, 255);"></path>
        <path d="M38.606,17.919A.979.979,0,0,0,39,18a1,1,0,0,0,.919-.606l3-7a1,1,0,1,0-1.838-.788l-3,7A1,1,0,0,0,38.606,17.919Z" id="id_109" style="fill: rgb(255, 255, 255);"></path>
        <path d="M60.521,21.122l-11,6a1,1,0,0,0,.958,1.756l11-6a1,1,0,1,0-.958-1.756Z" id="id_110" style="fill: rgb(255, 255, 255);"></path>
        <path d="M9.707,11.293a1,1,0,0,0-1.414,1.414l10,10a1,1,0,0,0,1.414-1.414Z" id="id_111" style="fill: rgb(255, 255, 255);"></path>
        <path d="M31,3V16a1,1,0,0,0,2,0V3a1,1,0,0,0-2,0Z" id="id_112" style="fill: rgb(255, 255, 255);"></path>
        <path d="M54.293,11.293l-10,10a1,1,0,1,0,1.414,1.414l10-10a1,1,0,0,0-1.414-1.414Z" id="id_113" style="fill: rgb(255, 255, 255);"></path>
        <path d="M61,34H51a1,1,0,0,0,0,2H61a1,1,0,0,0,0-2Z" id="id_114" style="fill: rgb(255, 255, 255);"></path>
    </g>
</svg>